<svg width="24" height="24" viewBox="0 0 24 24" fill="none" xmlns="http://www.w3.org/2000/svg">
<path fill-rule="evenodd" clip-rule="evenodd" d="M11.8715 0.000671387C5.38147 0.0689087 0.125565 5.29034 0.00219727 11.767C0.00239658 11.9142 0.00260973 12.0632 0.00283623 12.2141L0.00291967 12.2682C0.145578 18.7714 5.46263 24 12 24C18.627 24 24 18.627 24 12C24 5.42285 18.7072 0.0809326 12.149 0.000915527C12.0562 0.000915527 11.9637 0.000671387 11.8715 0.000671387ZM8.45957 5.69666C8.18723 5.12378 7.70358 4.71997 7.10725 4.5603C5.44501 4.1283 4.02225 5.86096 4.75946 7.41522C5.09284 8.12897 5.81127 8.57501 6.6283 8.57501C7.51576 8.57501 8.30931 7.974 8.56288 7.10059C8.68966 6.66864 8.6474 6.10046 8.45957 5.69666ZM19.2876 12.1718C18.9401 10.4532 17.9587 9.51416 16.32 9.33099C14.8925 9.17139 13.6529 9.5752 13.019 10.411L12.8359 10.6458L12.8124 10.2091C12.7842 9.7536 12.7325 9.59863 12.5776 9.51416C12.5259 9.48596 11.9906 9.46716 11.1971 9.46716H9.90581L9.64286 9.69257L9.62877 14.4069C9.61938 17.8911 9.63347 19.1495 9.67103 19.248C9.77903 19.5063 9.87294 19.5204 11.2628 19.5063L11.2721 19.5062C12.5073 19.4922 12.5309 19.492 12.6339 19.3842L12.7419 19.2762L12.7701 16.5669C12.7924 14.2183 12.7941 13.7579 12.9412 13.3499C12.9797 13.2432 13.0281 13.14 13.0894 13.0076C13.2678 12.6226 13.512 12.3644 13.8548 12.1906C14.1084 12.0685 14.1882 12.0497 14.5497 12.0497C15.0475 12.0497 15.3198 12.1343 15.6015 12.3831C15.8316 12.585 16.0054 12.8997 16.1321 13.3411C16.2026 13.5899 16.212 13.9468 16.2261 16.3697C16.2355 17.8817 16.2542 19.1636 16.2636 19.2246C16.2777 19.2809 16.3575 19.3702 16.4421 19.4218C16.5829 19.511 16.6815 19.5157 17.8742 19.5157H19.1608L19.4801 19.1964V16.4824C19.4801 13.6697 19.4472 12.9607 19.2876 12.1718ZM8.18723 9.94147C8.16375 9.8006 8.1121 9.68787 8.02288 9.59863L7.89141 9.46716H5.31353L5.19145 9.5799C5.12571 9.64093 5.05528 9.7442 5.04119 9.80524C5.02711 9.86163 5.02241 12.0122 5.02711 14.5713L5.04119 19.234L5.17267 19.3608L5.29945 19.4922L6.52969 19.5063C7.84915 19.5204 7.95245 19.5063 8.10271 19.2856C8.18253 19.173 8.18723 18.9053 8.20132 14.6558C8.21071 12.1765 8.20132 10.0541 8.18723 9.94147Z" fill="#007470"/>
</svg>
